<svg width="900" height="200" viewBox="0 0 900 200" fill="none" xmlns="http://www.w3.org/2000/svg">
<g clip-path="url(#clip0_2040_518)">
<path d="M96.6791 0V35.6461C94.8223 35.5945 93.3653 35.2334 92.6303 35.0142C90.2578 34.3178 89.149 33.3763 87.4599 32.4349C87.0473 32.2027 83.2048 30.1135 78.4083 29.8427C73.9727 29.5976 70.5558 30.9905 68.712 31.7771C65.5014 33.1571 63.3868 34.8594 61.6074 36.3038C58.7321 38.6252 56.6561 41.024 55.1475 42.765C52.5043 45.8086 52.5429 46.2858 50.8538 47.6915C49.5 48.8393 47.3854 50.5546 44.149 51.1736C43.1948 51.3541 40.2808 51.8055 37.0444 50.5288C33.0343 48.9554 31.0358 45.6925 29.2822 42.7779C28.1475 40.8821 27.245 38.0707 25.414 32.4349C22.1003 22.2724 22.0745 19.4093 22.1776 17.5651C22.2421 16.4431 22.4097 15.0245 22.1776 14.9729C21.7779 14.8826 20.424 19.0482 19.5988 22.7366C18.9928 25.4707 18.5028 28.7207 18.3094 35.6719C18.0515 45.0477 18.7994 43.9128 18.3094 47.3175C17.3037 54.2688 14.0802 59.3371 11.8495 62.8321C9.33521 66.7913 6.66616 69.7704 4.57733 71.8339C5.53148 71.7307 9.03865 71.0859 11.0501 68.6871C10.7278 71.1375 10.5215 72.7624 9.33521 75.0709C7.98134 77.6889 5.26071 78.9786 2.91401 82.4736C0.838075 85.5687 -0.412641 88.5865 0.180482 92.146C1.6504 89.7601 5.53148 85.4011 8.75498 84.1501C1.77934 91.1014 5.51859 98.0913 3.81659 105.791C3.27504 108.254 1.71487 110.588 1.14753 113.038C1.09595 113.271 1.04438 113.503 1.01859 113.748C0.747817 115.708 1.212 118.068 3.41687 119.28C3.55871 117.823 3.70054 116.404 4.60312 115.037C5.54438 113.593 6.94982 112.316 8.35527 111.065L8.62604 114.908C8.85813 118.249 8.43263 121.408 7.49137 124.671C7.10455 126.012 4.34524 132.267 1.79223 132.267C4.46128 132.332 12.9326 131.597 13.4226 128.94C13.9513 125.987 12.3395 136.265 14.3897 142.804C15.8596 147.472 19.5215 150.619 22.8094 152.67C22.4097 152.283 19.7664 149.742 20.2564 146.221C20.4885 144.532 21.3524 143.345 21.8424 142.752C22.2292 145.899 25.414 147.201 28.0315 149.497C31.5515 152.579 33.2664 156.629 32.712 160.562C35.4971 159.015 36.9799 156.371 36.477 153.895C39.4684 155.417 40.7578 157.067 41.6475 159.44C42.2535 161.065 43.3495 165.953 40.9899 167.991C45.7478 166.843 47.179 163.013 49.2421 159.917C51.318 162.239 52.1948 165.179 52.1046 167.913C54.245 167.23 55.9985 165.966 56.9398 164.431C56.9398 164.65 63.2192 172.672 63.8639 173.407C66.2364 176.128 70.3109 178.05 74.7851 178.553C70.3109 176.348 68.6217 171.744 71.02 168.3C71.5745 170.557 73.212 171.692 75.0687 173.381C76.0358 174.271 76.9126 175.148 78.1117 175.909C78.6146 176.245 81.2578 177.238 81.3868 177.612C80.6003 175.471 81.3223 173.111 83.2435 171.383C84.0172 172.092 85.1132 173.162 86.2091 174.658C87.563 176.477 88.5816 177.857 88.8008 179.83C89.0458 182.022 88.2077 183.879 87.5114 185.001C91.947 182.628 92.7593 180.939 92.6819 179.83C92.6046 178.811 91.7536 178.166 91.3925 175.961C91.1991 174.774 91.0702 174.026 91.3925 173.369C91.9985 172.143 94.1131 171.64 96.7306 171.937V199.974H98.6776V0H96.7306H96.6791ZM86.0157 62.1744C84.0945 61.839 81.7091 61.091 76.9641 59.595C74.3982 58.7697 73.212 58.0604 71.7937 57.0028C71.4197 56.7191 67.2163 53.5466 67.9126 51.8313C68.2736 50.9414 69.6533 51.1478 73.0831 50.5417C76.4355 49.9484 78.8854 49.0972 82.1346 47.9623C86.0802 46.5824 85.9513 46.3116 88.5945 45.383C91.947 44.2094 94.9513 44.0418 96.6662 44.0676V63.3866C87.9756 62.4323 87.9111 62.5355 86.0028 62.213L86.0157 62.1744ZM801.374 0V200H803.321V171.963C805.938 171.666 808.04 172.156 808.659 173.394C808.981 174.039 808.852 174.8 808.659 175.987C808.298 178.192 807.447 178.837 807.37 179.856C807.292 180.965 808.105 182.667 812.54 185.027C811.844 183.905 811.006 182.035 811.251 179.856C811.47 177.895 812.488 176.502 813.842 174.684C814.938 173.188 816.034 172.118 816.808 171.408C818.729 173.136 819.451 175.497 818.665 177.637C818.794 177.263 821.437 176.257 821.94 175.935C823.126 175.174 824.016 174.297 824.983 173.407C826.827 171.718 828.477 170.583 829.032 168.326C831.43 171.782 829.754 176.386 825.266 178.579C829.728 178.076 833.815 176.141 836.188 173.433C836.832 172.698 843.112 164.676 843.112 164.457C844.053 165.979 845.819 167.256 847.947 167.939C847.857 165.205 848.733 162.278 850.809 159.943C852.872 163.026 854.304 166.856 859.062 168.016C856.702 165.979 857.798 161.091 858.404 159.466C859.294 157.093 860.583 155.429 863.574 153.921C863.072 156.397 864.554 159.028 867.339 160.588C866.785 156.655 868.5 152.592 872.02 149.523C874.625 147.227 877.809 145.925 878.209 142.778C878.699 143.358 879.563 144.545 879.795 146.247C880.285 149.768 877.642 152.308 877.242 152.695C880.53 150.645 884.192 147.498 885.662 142.829C887.712 136.291 886.1 126.012 886.629 128.966C887.106 131.609 895.59 132.357 898.259 132.293C895.706 132.293 892.947 126.038 892.56 124.697C891.619 121.434 891.193 118.274 891.425 114.934L891.696 111.091C893.102 112.342 894.507 113.619 895.448 115.063C896.351 116.43 896.493 117.849 896.635 119.306C898.84 118.094 899.317 115.734 899.033 113.774C899.007 113.528 898.956 113.296 898.904 113.064C898.337 110.614 896.789 108.28 896.235 105.816C894.533 98.1171 898.272 91.1272 891.297 84.1759C894.52 85.4269 898.401 89.7859 899.871 92.1718C900.464 88.6123 899.213 85.5945 897.138 82.4994C894.791 79.0044 892.057 77.7276 890.716 75.0967C889.53 72.7753 889.324 71.1633 889.001 68.7129C891.026 71.1117 894.52 71.7565 895.474 71.8597C893.372 69.7962 890.716 66.8171 888.202 62.8579C885.958 59.35 882.748 54.2946 881.742 47.3433C881.252 43.9386 882 45.0735 881.742 35.6977C881.549 28.7465 881.046 25.4965 880.453 22.7624C879.628 19.074 878.261 14.9213 877.874 14.9987C877.642 15.0503 877.809 16.4689 877.874 17.5909C877.977 19.4351 877.951 22.2982 874.638 32.4607C872.807 38.0965 871.891 40.9079 870.769 42.8037C869.016 45.7183 867.017 48.9812 863.007 50.5546C859.771 51.8313 856.844 51.3799 855.903 51.1994C852.666 50.5803 850.552 48.8651 849.198 47.7173C847.509 46.3116 847.547 45.8473 844.904 42.7908C843.395 41.0369 841.307 38.651 838.444 36.3296C836.665 34.8723 834.55 33.17 831.34 31.8029C829.496 31.0162 826.079 29.6234 821.643 29.8685C816.847 30.1393 813.004 32.2285 812.592 32.4607C810.903 33.4021 809.794 34.3436 807.421 35.04C806.686 35.2592 805.229 35.6203 803.372 35.6719V0H801.425H801.374ZM803.321 63.3479V44.0289C805.036 44.016 808.04 44.1707 811.393 45.3443C814.036 46.2729 813.907 46.5437 817.852 47.9236C821.102 49.0585 823.552 49.9226 826.904 50.503C830.334 51.1091 831.713 50.9028 832.074 51.7926C832.771 53.5079 828.567 56.6804 828.193 56.9641C826.775 58.0217 825.602 58.731 823.023 59.5564C818.278 61.0524 815.893 61.8004 813.971 62.1357C812.076 62.471 811.999 62.3678 803.308 63.3093L803.321 63.3479ZM154.212 80.1909C158.596 75.7287 160.814 70.8924 160.814 65.7596C160.814 59.8401 158.686 54.7201 154.47 50.5417C150.266 46.3632 145.135 44.2352 139.229 44.2352H118.573V153.908H140.944L142.788 153.843V153.779C151.633 153.224 159.382 149.562 165.842 142.881C173.218 135.233 176.957 126.038 176.957 115.566C176.957 105.094 173.218 95.9376 165.881 88.5607C162.219 84.537 158.312 81.7385 154.199 80.2038L154.212 80.1909ZM128.244 87.3485H138.778C146.643 87.3485 153.168 90.0567 158.725 95.6152C164.282 101.174 166.99 107.699 166.99 115.566C166.99 123.433 164.282 130.062 158.699 135.814C153.928 140.792 148.203 143.629 141.705 144.248H128.244V87.3485ZM147.984 74.065C145.947 75.9479 143.562 76.9925 140.673 77.2762H128.244V53.8819H139.242C142.749 53.8819 145.599 54.9781 147.958 57.2479C150.292 59.4919 151.427 62.2646 151.427 65.7467C151.427 69.2288 150.305 71.9242 147.984 74.0521V74.065ZM245.36 135.246C244.741 135.994 244.057 136.729 243.348 137.439C237.791 142.997 231.266 145.705 223.401 145.705C216.851 145.705 211.049 143.706 206.123 139.773L252.825 93.0616L251.665 91.7591C251.291 91.3335 250.891 90.9079 250.466 90.4952C249.382 89.399 248.261 88.3931 247.139 87.4387C240.382 82.0222 232.401 79.2881 223.401 79.2881C212.918 79.2881 203.828 83.0539 196.401 90.4952C188.961 97.9236 185.196 107.016 185.196 117.501C185.196 127.986 188.961 137.142 196.401 144.571C203.828 151.999 212.918 155.778 223.401 155.778C233.884 155.778 243.039 152.012 250.466 144.571C251.987 143.049 253.367 141.437 254.566 139.773L256.01 137.774L246.185 134.253L245.36 135.246ZM223.401 89.3345C229.049 89.3345 234.129 90.7918 238.552 93.6807L199.599 132.641C196.711 128.218 195.254 123.124 195.254 117.475C195.254 109.608 197.961 103.095 203.519 97.5625C209.076 92.017 215.587 89.3216 223.401 89.3216V89.3345ZM331.337 91.1272C331.13 90.9079 330.924 90.6887 330.718 90.4823C323.278 83.0539 314.175 79.2752 303.653 79.2752C293.132 79.2752 284.08 83.041 276.653 90.4823C269.213 97.9108 265.448 107.029 265.448 117.552C265.448 128.076 269.213 137.129 276.653 144.558C284.08 151.986 293.17 155.765 303.653 155.765C314.136 155.765 323.291 151.999 330.744 144.545C330.95 144.338 331.143 144.132 331.337 143.913V153.908H340.994V44.2352H331.337V91.1272ZM303.653 145.705C295.788 145.705 289.264 143.01 283.706 137.465C278.149 131.919 275.441 125.406 275.441 117.552C275.441 109.698 278.149 103.16 283.706 97.6012C289.264 92.0428 295.788 89.3345 303.653 89.3345C311.519 89.3345 318.043 92.0428 323.6 97.6012C327.688 101.689 330.292 106.474 331.337 111.839V123.278C330.292 128.592 327.688 133.363 323.6 137.452C318.043 143.01 311.519 145.718 303.653 145.718V145.705ZM394.44 79.2752C383.957 79.2752 374.867 83.041 367.44 90.4823C367.234 90.6887 367.027 90.895 366.821 91.1143V44.2481H357.163V153.921H366.821V143.939C367.027 144.145 367.234 144.364 367.44 144.571C374.867 151.999 383.957 155.778 394.44 155.778C404.923 155.778 414.064 152.012 421.479 144.571C428.893 137.142 432.645 128.05 432.645 117.565C432.645 107.08 428.893 97.9365 421.479 90.4952C414.064 83.0539 404.974 79.2881 394.44 79.2881V79.2752ZM394.44 145.705C386.574 145.705 380.05 142.997 374.493 137.439C370.496 133.441 367.917 128.785 366.821 123.588V111.517C367.917 106.281 370.496 101.599 374.493 97.6012C380.05 92.0428 386.574 89.3345 394.44 89.3345C402.305 89.3345 408.83 92.0428 414.387 97.6012C419.944 103.16 422.652 109.685 422.652 117.552C422.652 125.419 419.944 131.932 414.387 137.465C408.83 143.01 402.305 145.705 394.44 145.705ZM503.342 135.246C502.723 135.994 502.04 136.729 501.331 137.439C495.774 142.997 489.249 145.705 481.384 145.705C474.834 145.705 469.032 143.706 464.106 139.773L510.808 93.0616L509.648 91.7591C509.274 91.3335 508.874 90.9079 508.448 90.4952C507.365 89.399 506.244 88.3931 505.122 87.4387C498.365 82.0222 490.384 79.2881 481.384 79.2881C470.901 79.2881 461.811 83.0539 454.384 90.4952C446.944 97.9236 443.179 107.016 443.179 117.501C443.179 127.986 446.944 137.142 454.384 144.571C461.811 151.999 470.901 155.778 481.384 155.778C491.867 155.778 501.021 152.012 508.448 144.571C509.97 143.049 511.35 141.437 512.549 139.773L513.993 137.774L504.168 134.253L503.342 135.246ZM481.384 89.3345C487.032 89.3345 492.112 90.7918 496.534 93.6807L457.582 132.641C454.693 128.218 453.236 123.124 453.236 117.475C453.236 109.608 455.944 103.095 461.501 97.5625C467.059 92.017 473.57 89.3216 481.384 89.3216V89.3345ZM589.332 91.1272C589.126 90.9079 588.92 90.6887 588.713 90.4823C581.274 83.0539 572.17 79.2752 561.649 79.2752C551.127 79.2752 542.076 83.041 534.649 90.4823C527.222 97.9108 523.444 107.029 523.444 117.552C523.444 128.076 527.209 137.129 534.649 144.558C542.076 151.986 551.166 155.765 561.649 155.765C572.132 155.765 581.287 151.999 588.739 144.545C588.946 144.338 589.139 144.132 589.332 143.913V153.908H598.99V85.1689H589.332V91.1272ZM561.649 145.705C553.784 145.705 547.259 143.01 541.702 137.465C536.145 131.919 533.437 125.406 533.437 117.552C533.437 109.698 536.145 103.16 541.702 97.6012C547.259 92.0428 553.784 89.3345 561.649 89.3345C569.514 89.3345 576.039 92.0428 581.596 97.6012C585.683 101.689 588.288 106.474 589.332 111.839V123.278C588.288 128.592 585.683 133.363 581.596 137.452C576.039 143.01 569.514 145.718 561.649 145.718V145.705ZM643.332 83.6471L645.266 83.5569V93.7581L643.5 93.8354C640.238 93.9902 636.731 95.9247 633.069 99.5873C627.718 104.901 625.01 111.091 624.804 118.532V153.908H615.146V85.1689H624.804V93.6549C625.178 93.2551 625.564 92.8553 625.951 92.4684C631.509 86.8971 637.362 83.9309 643.332 83.6471ZM718.659 91.1272C718.453 90.9079 718.246 90.6887 718.04 90.4823C710.6 83.0539 701.497 79.2752 690.976 79.2752C680.454 79.2752 671.403 83.041 663.976 90.4823C656.549 97.9108 652.771 107.029 652.771 117.552C652.771 128.076 656.536 137.129 663.976 144.558C671.403 151.986 680.493 155.765 690.976 155.765C701.458 155.765 710.613 151.999 718.066 144.545C718.272 144.338 718.466 144.132 718.659 143.913V153.908H728.317V44.2352H718.659V91.1272ZM690.976 145.705C683.11 145.705 676.586 143.01 671.029 137.465C665.471 131.919 662.764 125.406 662.764 117.552C662.764 109.698 665.471 103.16 671.029 97.6012C676.586 92.0428 683.11 89.3345 690.976 89.3345C698.841 89.3345 705.365 92.0428 710.923 97.6012C715.01 101.689 717.615 106.474 718.659 111.839V123.278C717.615 128.592 715.01 133.363 710.923 137.452C705.365 143.01 698.841 145.718 690.976 145.718V145.705ZM784.405 134.24C784.405 140.108 782.329 145.164 778.242 149.291C774.142 153.405 769.113 155.494 763.285 155.494C757.457 155.494 752.428 153.405 748.328 149.291C744.241 145.177 742.165 140.56 742.165 135.569V134.137L751.758 131.661V134.047C751.758 137.452 752.867 140.211 755.149 142.468C757.431 144.738 760.1 145.834 763.285 145.834C766.47 145.834 769.139 144.725 771.421 142.468C773.703 140.199 774.812 137.516 774.812 134.24C774.812 130.965 773.716 128.411 771.447 126.141C770.145 124.839 767.398 122.84 763.272 120.209C758.024 117.372 754.453 114.986 752.377 112.897C748.986 109.505 747.271 105.365 747.271 100.593C747.271 95.8215 748.986 91.6043 752.377 88.1996C755.768 84.782 759.907 83.0539 764.678 83.0539C769.448 83.0539 773.536 84.666 776.708 87.8385C779.789 90.9724 781.35 94.5963 781.35 98.6201V100.206L772.814 103.598L772.504 101.238C772.117 98.3105 771.228 96.1181 769.874 94.7511C768.572 93.4227 766.87 92.7908 764.665 92.7908C762.46 92.7908 760.693 93.5388 759.146 95.0735C757.599 96.6082 756.851 98.4137 756.851 100.619C756.851 102.824 757.599 104.578 759.159 106.139C759.842 106.822 761.57 108.215 765.851 110.91C771.615 114.057 775.689 116.856 778.229 119.384C782.329 123.536 784.405 128.54 784.405 134.266V134.24Z" fill="#BA704F" fill-opacity="0.9"/>
</g>
<defs>
<clipPath id="clip0_2040_518">
<rect width="900" height="200" fill="white"/>
</clipPath>
</defs>
</svg>
